<?xml version="1.0" encoding="UTF-8"?>
<svg id="Layer_1" data-name="Layer 1" xmlns="http://www.w3.org/2000/svg" viewBox="0 0 359.98 415">
  <defs>
    <style>
      .cls-1 {
        fill: #f9f28d;
      }
    </style>
  </defs>
  <path class="cls-1" d="M237.3,19.02s-78.49,27.69-89.32,92.64c-10.84,64.95-95.31-6.74-116.6,40.82-21.29,47.56-48.98,119.27-3.55,106.49s78.09-72.42,103.64-49.7c25.56,22.72-94.43,29.11-101.53,74.54-7.1,45.43,21.29,170.38,80.93,80.93,59.63-89.45,32.65-115.72,58.93-115.01,26.27,.72,8.87,105.78-21.83,114.3-30.7,8.51-17.92,82.35,36.02,35.5,53.96-46.85,119.27-125.65,77.39-175.35,0,0-17.04-31.24,5.68-26.97,22.72,4.26,102.94-85.2,67.44-112.17S323.24-7.94,237.29,19.03h.01Z"/>
  <path class="cls-1" d="M324.58,194.46s-25.56,13.25-43.66,11.18-12.42,12.49,12.42,25.27c24.84,12.78,75.97-5.1,61.76-25.27-14.2-20.16-30.52-11.18-30.52-11.18Z"/>
  <path class="cls-1" d="M319.43,264.66s-17.91-9.38-24-20.63c-6.09-11.25-12.19-2.12-9.55,17.32,2.64,19.45,33.51,41.68,39.39,25.38,5.9-16.29-5.85-22.06-5.85-22.06Z"/>
  <path class="cls-1" d="M97.4,25.4c-15.83,21.83,22.37,57.51,34.07,39.41,11.72-18.1-1.06-45.79,21.29-45.79s-24.5-36.2-55.38,6.4h.01Z"/>
</svg>